<?xml version="1.0" standalone="no"?>
<!DOCTYPE svg PUBLIC "-//W3C//DTD SVG 20010904//EN"
 "http://www.w3.org/TR/2001/REC-SVG-20010904/DTD/svg10.dtd">
<svg version="1.0" xmlns="http://www.w3.org/2000/svg"
 width="1280.000000pt" height="1280.000000pt" viewBox="0 0 1280.000000 1280.000000"
 preserveAspectRatio="xMidYMid meet">
<g transform="translate(0.000000,1280.000000) scale(0.100000,-0.100000)"
fill="#000000" stroke="none">
<path d="M3265 10644 c-567 -56 -990 -214 -1401 -520 -489 -365 -817 -904
-924 -1520 -45 -260 -51 -629 -15 -893 111 -807 515 -1539 1280 -2320 393
-400 764 -721 1575 -1356 1003 -787 1353 -1098 1648 -1464 67 -83 211 -289
226 -323 6 -15 0 -22 98 126 36 55 106 151 154 211 100 125 503 535 526 535 9
0 88 -60 177 -134 89 -74 275 -223 414 -332 698 -550 858 -685 1082 -915 163
-167 248 -277 336 -433 34 -61 67 -117 72 -124 7 -9 29 21 79 110 102 180 191
292 393 494 203 204 379 352 909 769 606 476 822 661 1111 950 607 607 914
1171 985 1810 13 118 13 351 -1 473 -70 651 -451 1186 -1044 1468 -165 78
-290 117 -555 173 -41 8 -41 1 -12 166 60 345 57 754 -9 1079 -78 386 -245
745 -484 1041 -98 121 -297 313 -420 406 -261 196 -568 346 -890 434 -776 212
-1602 58 -2181 -409 -318 -256 -571 -623 -718 -1040 -10 -30 -27 -5 -66 94
-66 171 -178 380 -283 525 -355 494 -887 807 -1529 900 -100 15 -451 27 -533
19z m4008 -3413 c423 -85 756 -307 981 -654 78 -120 135 -242 201 -437 30 -90
59 -168 63 -172 4 -4 27 52 51 125 118 358 233 553 447 757 200 192 457 321
759 383 94 19 141 22 325 21 194 0 227 -3 340 -27 889 -188 1434 -909 1370
-1810 -22 -308 -91 -553 -236 -847 -160 -322 -359 -586 -704 -931 -306 -307
-498 -471 -1145 -979 -661 -519 -925 -758 -1138 -1033 -33 -42 -63 -77 -67
-77 -4 0 -27 26 -51 58 -76 101 -208 249 -317 353 -202 193 -355 320 -1063
879 -129 102 -299 239 -379 306 -929 774 -1365 1407 -1466 2130 -12 92 -15
166 -11 324 5 225 23 344 78 513 41 127 144 334 220 442 83 116 259 292 379
377 193 137 467 253 705 297 156 29 160 29 365 26 142 -2 210 -7 293 -24z"/>
</g>
</svg>
